<svg xmlns="http://www.w3.org/2000/svg" viewBox="0 0 1024 1024" width="1024" height="1024">
  <defs>
    <linearGradient id="bg" x1="0" y1="0" x2="0" y2="1">
      <stop offset="0" stop-color="#262d39"/><stop offset="1" stop-color="#11141a"/>
    </linearGradient>
    <linearGradient id="sheen" x1="0" y1="0" x2="0" y2="1">
      <stop offset="0" stop-color="#ffffff" stop-opacity="0.10"/><stop offset="0.5" stop-color="#ffffff" stop-opacity="0"/>
    </linearGradient>
  </defs>
  <rect x="100" y="100" width="824" height="824" rx="186" fill="url(#bg)"/>
  <rect x="100" y="100" width="824" height="824" rx="186" fill="url(#sheen)"/>
  <rect x="101.5" y="101.5" width="821" height="821" rx="184.5" fill="none" stroke="#ffffff" stroke-opacity="0.08" stroke-width="3"/>
  <rect x="232" y="300" width="80" height="96" rx="18" fill="#4fb3bf"/>
  <rect x="328" y="300" width="80" height="96" rx="18" fill="#4fb3bf"/>
  <rect x="424" y="300" width="80" height="96" rx="18" fill="#2b323d"/>
  <rect x="520" y="300" width="80" height="96" rx="18" fill="#2b323d"/>
  <rect x="616" y="300" width="80" height="96" rx="18" fill="#2b323d"/>
  <rect x="712" y="300" width="80" height="96" rx="18" fill="#2b323d"/>
  <rect x="232" y="464" width="80" height="96" rx="18" fill="#e2a73c"/>
  <rect x="328" y="464" width="80" height="96" rx="18" fill="#e2a73c"/>
  <rect x="424" y="464" width="80" height="96" rx="18" fill="#e2a73c"/>
  <rect x="520" y="464" width="80" height="96" rx="18" fill="#e2a73c"/>
  <rect x="616" y="464" width="80" height="96" rx="18" fill="#2b323d"/>
  <rect x="712" y="464" width="80" height="96" rx="18" fill="#2b323d"/>
  <rect x="232" y="628" width="80" height="96" rx="18" fill="#ee7660"/>
  <rect x="328" y="628" width="80" height="96" rx="18" fill="#ee7660"/>
  <rect x="424" y="628" width="80" height="96" rx="18" fill="#ee7660"/>
  <rect x="520" y="628" width="80" height="96" rx="18" fill="#ee7660"/>
  <rect x="616" y="628" width="80" height="96" rx="18" fill="#ee7660"/>
  <rect x="712" y="628" width="80" height="96" rx="18" fill="#ee7660"/>
</svg>