<svg xmlns="http://www.w3.org/2000/svg" viewBox="100 100 824 824">
  <defs>
    <linearGradient id="bg" x1="0" y1="0" x2="0" y2="1">
      <stop offset="0" stop-color="#262d39"/><stop offset="1" stop-color="#11141a"/>
    </linearGradient>
    <linearGradient id="sheen" x1="0" y1="0" x2="0" y2="1">
      <stop offset="0" stop-color="#ffffff" stop-opacity="0.10"/><stop offset="0.5" stop-color="#ffffff" stop-opacity="0"/>
    </linearGradient>
  </defs>
  <rect x="100" y="100" width="824" height="824" rx="186" fill="url(#bg)"/>
  <rect x="100" y="100" width="824" height="824" rx="186" fill="url(#sheen)"/>
  <rect x="101.5" y="101.5" width="821" height="821" rx="184.5" fill="none" stroke="#ffffff" stroke-opacity="0.08" stroke-width="3"/>
  <path d="M302.7 757.3 A296 296 0 1 1 721.3 757.3" fill="none" stroke="#2b323d" stroke-width="62" stroke-linecap="round" opacity="1"/>
  <path d="M302.7 757.3 A296 296 0 0 1 330.6 314.1" fill="none" stroke="#4fb3bf" stroke-width="62" stroke-linecap="round" opacity="1"/>
  <path d="M364.9 695.1 A208 208 0 1 1 659.1 695.1" fill="none" stroke="#2b323d" stroke-width="62" stroke-linecap="round" opacity="1"/>
  <path d="M364.9 695.1 A208 208 0 1 1 680.3 425.7" fill="none" stroke="#e2a73c" stroke-width="62" stroke-linecap="round" opacity="1"/>
  <path d="M427.1 632.9 A120 120 0 1 1 596.9 632.9" fill="none" stroke="#2b323d" stroke-width="62" stroke-linecap="round" opacity="1"/>
  <path d="M427.1 632.9 A120 120 0 1 1 619.8 600.8" fill="none" stroke="#ee7660" stroke-width="62" stroke-linecap="round" opacity="1"/>
</svg>